HIERARCHY
ROOT Hips
{
	OFFSET 0.000000 0.000000 0.000000
	CHANNELS 6 Xposition Yposition Zposition Xrotation Yrotation Zrotation
	JOINT Chest
	{
		OFFSET 0.000000 0.009282 11.569106
		CHANNELS 6 Xposition Yposition Zposition Xrotation Yrotation Zrotation
		JOINT Chest2
		{
			OFFSET 0.000000 -0.016863 9.269641
			CHANNELS 6 Xposition Yposition Zposition Xrotation Yrotation Zrotation
			JOINT Chest3
			{
				OFFSET 0.000000 0.000000 8.374491
				CHANNELS 6 Xposition Yposition Zposition Xrotation Yrotation Zrotation
				JOINT Chest4
				{
					OFFSET 0.000000 0.000000 8.374493
					CHANNELS 6 Xposition Yposition Zposition Xrotation Yrotation Zrotation
					JOINT Neck
					{
						OFFSET 0.000000 -0.000001 12.152554
						CHANNELS 6 Xposition Yposition Zposition Xrotation Yrotation Zrotation
						JOINT Head
						{
							OFFSET 0.000000 -0.040100 7.802319
							CHANNELS 6 Xposition Yposition Zposition Xrotation Yrotation Zrotation
							End Site
							{
								OFFSET 0.000000 -0.020946 14.853096
							}
						}
					}
					JOINT RightCollar
					{
						OFFSET -2.894404 0.000000 6.791374
						CHANNELS 6 Xposition Yposition Zposition Xrotation Yrotation Zrotation
						JOINT RightShoulder
						{
							OFFSET -13.574684 0.000000 0.000000
							CHANNELS 6 Xposition Yposition Zposition Xrotation Yrotation Zrotation
							JOINT RightElbow
							{
								OFFSET -23.923903 0.000000 0.000000
								CHANNELS 6 Xposition Yposition Zposition Xrotation Yrotation Zrotation
								JOINT RightWrist
								{
									OFFSET -19.846718 -0.012765 0.000000
									CHANNELS 6 Xposition Yposition Zposition Xrotation Yrotation Zrotation
									End Site
									{
										OFFSET -14.973145 0.000000 0.000000
									}
								}
							}
						}
					}
					JOINT LeftCollar
					{
						OFFSET 2.894404 0.000000 6.791374
						CHANNELS 6 Xposition Yposition Zposition Xrotation Yrotation Zrotation
						JOINT LeftShoulder
						{
							OFFSET 13.574684 0.000000 0.000000
							CHANNELS 6 Xposition Yposition Zposition Xrotation Yrotation Zrotation
							JOINT LeftElbow
							{
								OFFSET 23.923903 0.000000 0.000000
								CHANNELS 6 Xposition Yposition Zposition Xrotation Yrotation Zrotation
								JOINT LeftWrist
								{
									OFFSET 19.846718 -0.012765 0.000000
									CHANNELS 6 Xposition Yposition Zposition Xrotation Yrotation Zrotation
									End Site
									{
										OFFSET 14.973145 0.000000 0.000000
									}
								}
							}
						}
					}
				}
			}
		}
	}
	JOINT RightHip
	{
		OFFSET -9.469263 -0.004642 0.045487
		CHANNELS 6 Xposition Yposition Zposition Xrotation Yrotation Zrotation
		JOINT RightKnee
		{
			OFFSET 0.000000 -0.002666 -40.478676
			CHANNELS 6 Xposition Yposition Zposition Xrotation Yrotation Zrotation
			JOINT RightAnkle
			{
				OFFSET 0.000000 -0.049110 -35.224068
				CHANNELS 6 Xposition Yposition Zposition Xrotation Yrotation Zrotation
				JOINT RightToe
				{
					OFFSET 0.000000 -12.539530 -6.151390
					CHANNELS 6 Xposition Yposition Zposition Xrotation Yrotation Zrotation
					End Site
					{
						OFFSET 0.000000 -5.044995 -1.291870
					}
				}
			}
		}
	}
	JOINT LeftHip
	{
		OFFSET 9.469263 -0.004642 0.045487
		CHANNELS 6 Xposition Yposition Zposition Xrotation Yrotation Zrotation
		JOINT LeftKnee
		{
			OFFSET 0.000000 -0.002666 -40.478676
			CHANNELS 6 Xposition Yposition Zposition Xrotation Yrotation Zrotation
			JOINT LeftAnkle
			{
				OFFSET 0.000000 -0.049110 -35.224068
				CHANNELS 6 Xposition Yposition Zposition Xrotation Yrotation Zrotation
				JOINT LeftToe
				{
					OFFSET 0.000000 -12.539530 -6.151390
					CHANNELS 6 Xposition Yposition Zposition Xrotation Yrotation Zrotation
					End Site
					{
						OFFSET 0.000000 -5.044995 -1.291870
					}
				}
			}
		}
	}
}
MOTION
Frames: 5
Frame Time: 0.016667
-10.924904 -7.259644 83.077904 2.824786 4.734568 -112.563116 -0.000001 0.009282 11.569102 0.938203 0.010486 -0.833465 -0.000000 -0.016861 9.269639 0.415466 -0.006523 -0.369555 0.000001 -0.000000 8.374487 0.415465 -0.006523 -0.369553 -0.000001 -0.000001 8.374497 0.311603 -0.004641 -0.277169 -0.000000 -0.000001 12.152555 19.092566 -1.341769 -0.563878 0.000003 -0.040101 7.802320 -0.743371 -2.271433 -1.459011 -2.894404 0.000002 6.791373 4.231935 -3.803209 2.268034 -13.574686 0.000001 -0.000004 26.340572 -53.046388 76.242383 -23.923897 -0.000006 0.000003 39.223119 3.196028 78.903725 -19.846716 -0.012773 0.000012 -54.418009 41.858719 79.673296 2.894403 0.000001 6.791378 4.095554 9.889830 -5.473516 13.574683 -0.000003 0.000000 25.520157 52.071675 -72.773712 23.923895 -0.000007 0.000009 41.013633 9.940119 -54.596881 19.846712 -0.012769 0.000003 -44.925071 -42.279834 -82.698640 -9.469264 -0.004642 0.045482 8.059483 -0.264668 -0.139064 0.000070 -0.002667 -40.478611 1.281467 0.339979 -1.477737 0.000011 -0.049116 -35.224239 -3.734009 -1.213353 -0.256965 -0.000000 -12.539531 -6.151367 -0.033475 -0.005517 -0.009274 9.469262 -0.004642 0.045485 8.776185 0.795116 -0.240281 -0.000059 -0.002668 -40.478699 -0.387990 -0.841778 1.256439 0.000013 -0.049115 -35.224209 -3.161713 -0.088926 -0.306659 -0.000000 -12.539532 -6.151383 0.037456 -0.057280 0.011332 
-10.935261 -7.283149 83.080154 2.853950 4.736672 -112.586789 -0.000000 0.009281 11.569092 0.947324 -0.003090 -0.841162 -0.000001 -0.016863 9.269635 0.419302 -0.012688 -0.373310 -0.000001 0.000000 8.374485 0.419302 -0.012688 -0.373310 -0.000000 -0.000001 8.374504 0.314485 -0.009260 -0.279993 -0.000001 0.000000 12.152563 19.210710 -1.355386 -0.562760 0.000001 -0.040103 7.802305 -0.524156 -2.297847 -1.459223 -2.894404 -0.000001 6.791372 4.214628 -3.804295 2.287690 -13.574684 0.000001 0.000003 26.413878 -52.858595 76.243858 -23.923895 0.000005 0.000002 39.142144 3.148007 78.787277 -19.846712 -0.012773 0.000001 -54.378893 41.777282 79.739904 2.894403 -0.000001 6.791369 4.105627 9.894599 -5.461318 13.574681 -0.000000 -0.000006 25.521512 52.096066 -72.709802 23.923899 -0.000002 -0.000005 41.059590 10.009077 -54.434723 19.846712 -0.012772 0.000006 -45.135502 -42.111524 -83.070878 -9.469262 -0.004642 0.045475 8.062202 -0.268570 -0.113627 0.000070 -0.002667 -40.478607 1.297678 0.344122 -1.488110 0.000011 -0.049120 -35.224251 -3.730762 -1.241354 -0.245625 0.000001 -12.539533 -6.151388 -0.034127 -0.000136 -0.009249 9.469263 -0.004643 0.045478 8.797185 0.781027 -0.188750 -0.000062 -0.002666 -40.478699 -0.398258 -0.819540 1.267445 0.000020 -0.049117 -35.224216 -3.167260 -0.099621 -0.332963 -0.000000 -12.539529 -6.151375 0.042095 -0.061045 0.011082 
-10.944514 -7.307266 83.082680 2.885513 4.735211 -112.620483 -0.000000 0.009283 11.569109 0.952521 -0.018012 -0.842703 0.000001 -0.016864 9.269663 0.421643 -0.019813 -0.374174 0.000000 -0.000000 8.374482 0.421644 -0.019813 -0.374184 -0.000001 0.000000 8.374489 0.316245 -0.014601 -0.280644 -0.000001 -0.000004 12.152561 19.324253 -1.360127 -0.567202 -0.000000 -0.040101 7.802305 -0.313375 -2.306244 -1.466822 -2.894405 -0.000001 6.791381 4.204396 -3.810322 2.294597 -13.574685 0.000001 0.000000 26.459666 -52.719437 76.249582 -23.923893 -0.000009 0.000002 39.158520 3.039507 78.674456 -19.846724 -0.012759 0.000008 -54.343700 41.729464 79.758441 2.894404 -0.000001 6.791382 4.115213 9.896728 -5.451873 13.574683 0.000001 0.000008 25.528891 52.137723 -72.624001 23.923889 -0.000005 0.000002 41.132431 10.018959 -54.318968 19.846716 -0.012768 0.000001 -45.360762 -41.969583 -83.298460 -9.469264 -0.004641 0.045488 8.055236 -0.269899 -0.083842 0.000071 -0.002667 -40.478611 1.324004 0.340232 -1.494405 0.000010 -0.049118 -35.224243 -3.727751 -1.268270 -0.229274 0.000000 -12.539534 -6.151383 -0.036594 0.005976 -0.010075 9.469262 -0.004642 0.045488 8.810864 0.759335 -0.140162 -0.000059 -0.002666 -40.478691 -0.397048 -0.786229 1.277619 0.000017 -0.049116 -35.224205 -3.179456 -0.117252 -0.351365 -0.000001 -12.539532 -6.151382 0.046205 -0.063469 0.011267 
-10.953379 -7.331583 83.085953 2.918133 4.730248 -112.655897 -0.000000 0.009282 11.569102 0.955316 -0.034728 -0.848239 -0.000001 -0.016864 9.269648 0.422863 -0.027564 -0.376912 -0.000001 -0.000001 8.374488 0.422862 -0.027564 -0.376913 0.000001 0.000000 8.374504 0.317164 -0.020413 -0.282701 -0.000000 0.000000 12.152563 19.430529 -1.355255 -0.567088 -0.000001 -0.040100 7.802309 -0.115858 -2.298434 -1.463176 -2.894405 0.000002 6.791377 4.191952 -3.819849 2.304096 -13.574684 0.000000 -0.000000 26.470726 -52.622745 76.253584 -23.923893 0.000002 -0.000003 39.214237 2.885301 78.554122 -19.846708 -0.012763 -0.000004 -54.302179 41.649804 79.773802 2.894404 0.000002 6.791378 4.133236 9.899255 -5.456147 13.574684 -0.000001 0.000000 25.520203 52.179647 -72.529396 23.923903 -0.000000 0.000014 41.132383 10.123963 -54.218690 19.846720 -0.012765 -0.000003 -45.442638 -41.874712 -83.438158 -9.469264 -0.004642 0.045480 8.043731 -0.275427 -0.057618 0.000070 -0.002668 -40.478607 1.352855 0.341854 -1.490752 0.000009 -0.049119 -35.224236 -3.722672 -1.302032 -0.214606 0.000000 -12.539531 -6.151382 -0.040864 0.014064 -0.011185 9.469264 -0.004642 0.045481 8.822432 0.730198 -0.101099 -0.000059 -0.002667 -40.478703 -0.397239 -0.743611 1.269828 0.000019 -0.049120 -35.224228 -3.190597 -0.140881 -0.348003 -0.000000 -12.539532 -6.151377 0.049506 -0.065127 0.011741 
-10.961844 -7.356360 83.090370 2.948157 4.732054 -112.692268 0.000000 0.009284 11.569099 0.956709 -0.052218 -0.851798 0.000000 -0.016862 9.269651 0.423848 -0.034869 -0.378339 -0.000000 0.000001 8.374509 0.423847 -0.034868 -0.378333 -0.000001 0.000002 8.374493 0.317907 -0.025888 -0.283776 -0.000002 0.000001 12.152550 19.530846 -1.346518 -0.570142 -0.000001 -0.040102 7.802299 0.070614 -2.282510 -1.464226 -2.894405 0.000001 6.791372 4.193369 -3.819445 2.312561 -13.574681 0.000000 0.000007 26.482110 -52.560143 76.263092 -23.923889 -0.000009 0.000000 39.265993 2.756868 78.423986 -19.846718 -0.012763 0.000007 -54.208469 41.589018 79.794716 2.894403 0.000002 6.791379 4.151958 9.906941 -5.452190 13.574681 0.000001 -0.000004 25.527458 52.211387 -72.466962 23.923901 -0.000001 0.000007 41.112066 10.370257 -54.064318 19.846712 -0.012772 0.000003 -45.402084 -41.774007 -83.630769 -9.469262 -0.004640 0.045480 8.039818 -0.279709 -0.038616 0.000069 -0.002668 -40.478619 1.374302 0.350985 -1.478564 0.000009 -0.049117 -35.224239 -3.711998 -1.336691 -0.207981 0.000001 -12.539533 -6.151380 -0.044636 0.018711 -0.011986 9.469263 -0.004641 0.045482 8.837503 0.709793 -0.070605 -0.000061 -0.002667 -40.478691 -0.394715 -0.709698 1.257305 0.000017 -0.049118 -35.224209 -3.196934 -0.157470 -0.334133 -0.000001 -12.539535 -6.151377 0.047471 -0.068732 0.012298 
